<svg width="66" height="66" viewBox="0 0 66 66" fill="none" xmlns="http://www.w3.org/2000/svg">
<path d="M36.9951 54.5988L36.9274 48.979H31.7816C26.1987 48.979 21.4401 47.0276 17.5059 43.1248C13.5716 39.222 11.6045 34.459 11.6045 28.8358C11.6045 23.3063 13.5701 18.578 17.5013 14.6509C21.4325 10.7238 26.193 8.76025 31.7827 8.76025C34.555 8.76025 37.1537 9.28856 39.5787 10.3452C42.0037 11.4017 44.1029 12.8219 45.8762 14.6056C47.6495 16.3893 49.0614 18.4983 50.112 20.9327C51.1625 23.3669 51.6878 25.99 51.6878 28.8019C51.6878 31.3697 51.338 33.8624 50.6383 36.2799C49.9387 38.6974 48.9456 41.012 47.6592 43.2238C46.3727 45.4356 44.8289 47.5088 43.0277 49.4435C41.2265 51.3782 39.2157 53.0966 36.9951 54.5988ZM38.6201 51.0103C42.0055 48.2116 44.7252 44.8744 46.779 40.9985C48.8328 37.1226 49.8597 33.0665 49.8597 28.8303C49.8597 23.6009 48.1065 19.2532 44.6 15.7872C41.0935 12.3213 36.8166 10.5884 31.7693 10.5884C26.6768 10.5884 22.3475 12.3601 18.7816 15.9035C15.2156 19.4469 13.4326 23.7577 13.4326 28.8358C13.4326 33.959 15.2043 38.2924 18.7477 41.8358C22.2911 45.3792 26.6377 47.1509 31.7874 47.1509H38.6201V51.0103ZM31.9812 42.8175C32.4801 42.8175 32.9213 42.6343 33.305 42.2677C33.6887 41.9012 33.8805 41.4723 33.8805 40.9812C33.8805 40.4902 33.6899 40.0528 33.3085 39.6691C32.9272 39.2854 32.4758 39.0936 31.9544 39.0936C31.4781 39.0936 31.0481 39.2815 30.6644 39.6575C30.2807 40.0333 30.0889 40.4734 30.0889 40.9778C30.0889 41.4821 30.2776 41.9148 30.6551 42.2759C31.0326 42.637 31.4746 42.8175 31.9812 42.8175ZM30.9014 34.7603H32.7972C32.8875 33.9026 33.1696 33.045 33.6436 32.1873C34.1175 31.3297 34.9413 30.3141 36.1149 29.1405C37.0628 28.1925 37.7286 27.3133 38.1123 26.5026C38.496 25.692 38.6878 24.7686 38.6878 23.7325C38.6878 21.876 38.0559 20.3609 36.792 19.1873C35.5281 18.0137 33.9257 17.4269 31.9847 17.4269C30.3927 17.4269 29.0016 17.867 27.8115 18.7472C26.6214 19.6274 25.733 20.6995 25.1462 21.9634L26.8899 22.6405C27.3976 21.6925 28.0463 20.9252 28.8363 20.3384C29.6262 19.7516 30.6531 19.4582 31.917 19.4582C33.5871 19.4582 34.8172 19.8827 35.6071 20.7319C36.397 21.5811 36.792 22.5558 36.792 23.6561C36.792 24.6666 36.5889 25.506 36.1826 26.1744C35.7764 26.8427 35.0316 27.696 33.9482 28.7342C32.7746 29.8175 31.9734 30.8508 31.5446 31.834C31.1158 32.8171 30.9014 33.7926 30.9014 34.7603Z" fill="#F9E3B6"/>
</svg>
