<svg width="400" height="400" viewBox="0 0 400 400" fill="none" xmlns="http://www.w3.org/2000/svg">
<g clip-path="url(#clip0_62_135)">
<path d="M195.4 4.66662C186.733 16.0666 180.467 47.6666 187.467 44.6666C191.867 42.8666 204.6 42.3333 209.867 43.8L215 45.2L214.4 33.6C213.8 20.9999 211 12.9333 204.4 4.73328C199.8 -1.06672 199.8 -1.06672 195.4 4.66662Z" fill="#F9E3B6"/>
<path d="M197.333 66.2C184.4 70.4 185.333 60.2 185.333 201.067V324.867L152.667 346.667L120 368.533V384.2C120 396.2 120.4 399.8 121.667 399.333C124.933 398.267 186.6 381.333 187.267 381.333C187.667 381.333 188 385.533 188 390.667V400H200H212V390.667C212 385.533 212.333 381.333 212.733 381.333C213.4 381.333 275.067 398.267 278.333 399.333C279.6 399.8 280 396.2 280 384.133V368.4L247.333 346.667L214.667 324.933V201.067C214.667 67.4666 214.867 71.8666 207.8 68.4C203.467 66.2 199.667 65.4666 197.333 66.2Z" fill="#F9E3B6"/>
<path d="M79.6667 186.933L0 221.733V236.867C0 247.4 0.466667 252 1.53333 252C3.26667 252 103.4 232.2 107 231.2C109 230.6 109.333 228.667 109.333 216.6V202.667H135.333H161.333V177.333C161.333 163.4 160.867 152 160.333 152.067C159.8 152.133 123.467 167.8 79.6667 186.933Z" fill="#F9E3B6"/>
<path d="M238.667 177.2V202.667H264.667H290.667V216.6C290.667 228.667 291 230.6 293 231.2C295.667 232 397.734 252 399.134 252C399.6 252 400 245.2 400 236.867V221.733L321.667 187.6C278.6 168.8 242.267 153.067 241 152.6C238.8 151.8 238.667 153.467 238.667 177.2Z" fill="#F9E3B6"/>
<path d="M132.467 227.333C130.6 232.267 132.667 271.267 135.067 274.8C139.4 281.267 147.867 283.133 154.667 279.133C160.667 275.6 161.333 272.333 161.333 247.933V225.333H147.267C136.067 225.333 133.067 225.733 132.467 227.333Z" fill="#F9E3B6"/>
<path d="M238.734 248.933C238.734 265.533 239.267 273.267 240.4 274.733C245.4 281.133 253 282.933 259.8 279.467C266.467 276 267.334 272.4 267.334 248.133V226L253 225.6L238.667 225.267L238.734 248.933Z" fill="#F9E3B6"/>
</g>
<defs>
<clipPath id="clip0_62_135">
<rect width="400" height="400" fill="white"/>
</clipPath>
</defs>
</svg>
