<svg width="16" height="16" viewBox="0 0 16 16" fill="none" xmlns="http://www.w3.org/2000/svg">
<g clip-path="url(#clip0_26_948)">
<path fill-rule="evenodd" clip-rule="evenodd" d="M7.99985 0.615234C3.90754 0.615234 0.615234 3.90754 0.615234 7.99985C0.615234 12.0922 3.90754 15.3845 7.99985 15.3845C12.0922 15.3845 15.3845 12.0922 15.3845 7.99985C15.3845 3.90754 12.0922 0.615234 7.99985 0.615234ZM7.99985 13.5383C4.92293 13.5383 2.46139 11.0768 2.46139 7.99985C2.46139 4.92293 4.92293 2.46139 7.99985 2.46139C11.0768 2.46139 13.5383 4.92293 13.5383 7.99985C13.5383 11.0768 11.0768 13.5383 7.99985 13.5383ZM7.99985 4.33831C8.52293 4.33831 8.92293 4.73831 8.92293 5.26139C8.92293 5.78447 8.52293 6.18447 7.99985 6.18447C7.47677 6.18447 7.07677 5.78447 7.07677 5.26139C7.07677 4.73831 7.47677 4.33831 7.99985 4.33831ZM9.53831 10.7999C9.53831 10.9537 9.41523 11.0768 9.23062 11.0768H6.76908C6.61523 11.0768 6.46139 10.9845 6.46139 10.7999V10.1845C6.46139 10.0306 6.58447 9.846 6.76908 9.846C6.92293 9.846 7.07677 9.7537 7.07677 9.56908V8.33831C7.07677 8.18447 6.9537 7.99985 6.76908 7.99985C6.61523 7.99985 6.46139 7.90754 6.46139 7.72293V7.10754C6.46139 6.9537 6.58447 6.76908 6.76908 6.76908H8.61523C8.76908 6.76908 8.92293 6.92293 8.92293 7.10754V9.56908C8.92293 9.72293 9.046 9.846 9.23062 9.846C9.38447 9.846 9.53831 9.99985 9.53831 10.1845V10.7999Z" fill="white"/>
</g>
<defs>
<clipPath id="clip0_26_948">
<rect width="16" height="16" fill="white"/>
</clipPath>
</defs>
</svg>
