<svg width="66" height="66" viewBox="0 0 66 66" fill="none" xmlns="http://www.w3.org/2000/svg">
<path d="M42.5469 52.6353L33 43.0884L34.6927 41.3957L42.5469 49.2498L58.3906 33.4061L60.0833 35.0988L42.5469 52.6353ZM54.9375 27.1092H52.5677V13.229H44.0365V19.3905H21.9635V13.229H13.4323V52.3644H30.0208V54.7342H11.0625V10.8592H28.9375C29.1632 9.9113 29.636 9.12137 30.3561 8.48942C31.0761 7.85748 31.9805 7.5415 33.0695 7.5415C34.0837 7.5415 34.9576 7.85748 35.6913 8.48942C36.4249 9.12137 36.9271 9.9113 37.1979 10.8592H54.9375V27.1092ZM33.0796 13.9738C33.6133 13.9738 34.0833 13.778 34.4896 13.3864C34.8958 12.9948 35.099 12.5096 35.099 11.9307C35.099 11.3518 34.8919 10.8705 34.4777 10.4868C34.0635 10.1031 33.5896 9.9113 33.0559 9.9113C32.477 9.9113 31.9957 10.1071 31.612 10.4987C31.2283 10.8903 31.0365 11.3755 31.0365 11.9544C31.0365 12.5333 31.2322 13.0146 31.6238 13.3983C32.0155 13.782 32.5007 13.9738 33.0796 13.9738Z" fill="#F9E3B6"/>
</svg>
