<svg width="66" height="66" viewBox="0 0 66 66" fill="none" xmlns="http://www.w3.org/2000/svg">
<path d="M37.0622 37.0627C34.8052 37.0627 32.8868 36.2727 31.307 34.6929C29.7271 33.113 28.9372 31.1946 28.9372 28.9377C28.9372 26.6807 29.7271 24.7623 31.307 23.1825C32.8868 21.6026 34.8052 20.8127 37.0622 20.8127C39.3191 20.8127 41.2375 21.6026 42.8174 23.1825C44.3972 24.7623 45.1872 26.6807 45.1872 28.9377C45.1872 31.1946 44.3972 33.113 42.8174 34.6929C41.2375 36.2727 39.3191 37.0627 37.0622 37.0627ZM11.333 46.5418V11.3335H62.7913V46.5418H11.333ZM22.1663 42.4793H51.958C51.958 40.5835 52.6125 38.9811 53.9216 37.672C55.2306 36.363 56.833 35.7085 58.7288 35.7085V22.1668C56.833 22.1668 55.2306 21.5123 53.9216 20.2033C52.6125 18.8943 51.958 17.2918 51.958 15.396H22.1663C22.1663 17.2918 21.5118 18.8943 20.2028 20.2033C18.8938 21.5123 17.2913 22.1668 15.3955 22.1668V35.7085C17.2913 35.7085 18.8938 36.363 20.2028 37.672C21.5118 38.9811 22.1663 40.5835 22.1663 42.4793ZM3.20801 54.6668V19.4585H7.27051V50.6043H54.6663V54.6668H3.20801Z" fill="#F9E3B6"/>
</svg>
